<svg width="120" height="48" viewBox="0 0 120 48" fill="none" xmlns="http://www.w3.org/2000/svg">
<rect width="120" height="48" rx="24" fill="#F0F0F0"/>
<path d="M22.912 18.432V28.544H28V30H21.344V18.432H22.912ZM31.7354 30.192C30.0554 30.192 29.0634 29.248 29.0634 27.824C29.0634 26.384 30.1354 25.488 31.9754 25.344L34.4394 25.152V24.928C34.4394 23.616 33.6554 23.152 32.5994 23.152C31.3354 23.152 30.6154 23.712 30.6154 24.656H29.3034C29.3034 23.024 30.6474 21.952 32.6634 21.952C34.5994 21.952 35.9114 22.976 35.9114 25.088V30H34.6314L34.4714 28.736C34.0714 29.632 32.9994 30.192 31.7354 30.192ZM32.1674 29.024C33.5914 29.024 34.4554 28.096 34.4554 26.624V26.208L32.4554 26.368C31.1274 26.496 30.5834 27.008 30.5834 27.776C30.5834 28.608 31.1914 29.024 32.1674 29.024ZM40.0773 30H38.5733V23.44H37.0373V22.176H38.5733V19.728H40.0773V22.176H41.6133V23.44H40.0773V30ZM46.2609 30.192C43.9569 30.192 42.3729 28.528 42.3729 26.096C42.3729 23.648 43.9249 21.952 46.1969 21.952C48.4209 21.952 49.8769 23.488 49.8769 25.808V26.368L43.8289 26.384C43.9409 28.032 44.8049 28.944 46.2929 28.944C47.4609 28.944 48.2289 28.464 48.4849 27.568H49.8929C49.5089 29.248 48.1969 30.192 46.2609 30.192ZM46.1969 23.216C44.8849 23.216 44.0529 24 43.8609 25.376H48.3729C48.3729 24.08 47.5249 23.216 46.1969 23.216ZM50.9168 27.728H52.3568C52.3568 28.528 52.9648 29.008 53.9568 29.008C55.0128 29.008 55.6208 28.576 55.6208 27.856C55.6208 27.328 55.3648 27.008 54.5488 26.8L53.1728 26.48C51.7808 26.144 51.1248 25.456 51.1248 24.304C51.1248 22.864 52.3408 21.952 54.0688 21.952C55.7808 21.952 56.9008 22.912 56.9328 24.4H55.4928C55.4608 23.616 54.9328 23.12 54.0208 23.12C53.0768 23.12 52.5488 23.536 52.5488 24.256C52.5488 24.784 52.9328 25.136 53.7008 25.328L55.0768 25.664C56.4048 25.984 57.0608 26.592 57.0608 27.76C57.0608 29.248 55.7808 30.192 53.9248 30.192C52.0848 30.192 50.9168 29.216 50.9168 27.728ZM60.9366 30H59.4326V23.44H57.8966V22.176H59.4326V19.728H60.9366V22.176H62.4726V23.44H60.9366V30Z" fill="black"/>
<path d="M97.5306 22.5306L92.5306 27.5306C92.4609 27.6005 92.3781 27.656 92.287 27.6939C92.1958 27.7317 92.0981 27.7512 91.9993 27.7512C91.9006 27.7512 91.8029 27.7317 91.7117 27.6939C91.6206 27.656 91.5378 27.6005 91.4681 27.5306L86.4681 22.5306C86.3272 22.3897 86.248 22.1986 86.248 21.9994C86.248 21.8001 86.3272 21.609 86.4681 21.4681C86.609 21.3272 86.8001 21.2481 86.9993 21.2481C87.1986 21.2481 87.3897 21.3272 87.5306 21.4681L92 25.9375L96.4693 21.4675C96.6102 21.3266 96.8013 21.2474 97.0006 21.2474C97.1999 21.2474 97.391 21.3266 97.5318 21.4675C97.6727 21.6084 97.7519 21.7995 97.7519 21.9987C97.7519 22.198 97.6727 22.3891 97.5318 22.53L97.5306 22.5306Z" fill="black"/>
</svg>
