<svg width="349" height="48" viewBox="0 0 349 48" fill="none" xmlns="http://www.w3.org/2000/svg">
<rect width="349" height="48" rx="24" fill="white"/>
<path d="M37 16.125H19C18.7016 16.125 18.4155 16.2435 18.2045 16.4545C17.9935 16.6655 17.875 16.9516 17.875 17.25V30C17.875 30.4973 18.0725 30.9742 18.4242 31.3258C18.7758 31.6775 19.2527 31.875 19.75 31.875H36.25C36.7473 31.875 37.2242 31.6775 37.5758 31.3258C37.9275 30.9742 38.125 30.4973 38.125 30V17.25C38.125 16.9516 38.0065 16.6655 37.7955 16.4545C37.5845 16.2435 37.2984 16.125 37 16.125ZM28 23.9738L21.8922 18.375H34.1078L28 23.9738ZM24.6991 24L20.125 28.1925V19.8075L24.6991 24ZM26.3641 25.5262L27.2397 26.3297C27.4472 26.52 27.7185 26.6255 28 26.6255C28.2815 26.6255 28.5528 26.52 28.7603 26.3297L29.6359 25.5262L34.1078 29.625H21.8922L26.3641 25.5262ZM31.3009 24L35.875 19.8075V28.1925L31.3009 24Z" fill="black" fill-opacity="0.4"/>
<path d="M60.256 29H53.392V17.544H60.24V18.6H54.544V22.728H59.712V23.768H54.544V27.944H60.256V29ZM63.4591 29H62.3551V21.256H63.3151L63.4751 22.6C63.9871 21.608 65.0111 21.048 66.1311 21.048C68.2591 21.048 69.1391 22.312 69.1391 24.264V29H68.0351V24.504C68.0351 22.696 67.2191 22.056 65.9391 22.056C64.3551 22.056 63.4591 23.208 63.4591 24.952V29ZM73.1155 29H72.0275V22.184H70.4755V21.256H72.0275V18.808H73.1155V21.256H74.6675V22.184H73.1155V29ZM79.275 29.192C77.003 29.192 75.483 27.56 75.483 25.128C75.483 22.712 76.987 21.048 79.195 21.048C81.291 21.048 82.715 22.536 82.715 24.728V25.272H76.555C76.635 27.16 77.627 28.248 79.291 28.248C80.555 28.248 81.371 27.704 81.659 26.68H82.715C82.299 28.312 81.099 29.192 79.275 29.192ZM79.195 21.992C77.739 21.992 76.779 22.952 76.587 24.472H81.611C81.611 22.984 80.651 21.992 79.195 21.992ZM88.5281 21.16V22.152H87.9201C86.4961 22.152 85.5841 23.112 85.5841 24.584V29H84.4801V21.256H85.5201L85.6001 22.456C85.9041 21.624 86.7201 21.08 87.8081 21.08C88.0481 21.08 88.2561 21.096 88.5281 21.16ZM93.6493 32.376V31.464H94.4973C95.1693 31.464 95.8413 31.416 96.2253 30.376L96.5613 29.464L93.4253 21.256H94.5933L97.0893 28.008L99.5373 21.256H100.673L97.1213 30.776C96.6733 31.992 95.9213 32.488 94.8173 32.488C94.3533 32.488 94.0013 32.456 93.6493 32.376ZM101.155 25.128C101.155 22.76 102.819 21.048 105.091 21.048C107.363 21.048 109.027 22.76 109.027 25.128C109.027 27.48 107.363 29.192 105.091 29.192C102.819 29.192 101.155 27.48 101.155 25.128ZM102.275 25.112C102.275 26.936 103.427 28.2 105.091 28.2C106.739 28.2 107.907 26.936 107.907 25.112C107.907 23.32 106.739 22.04 105.091 22.04C103.427 22.04 102.275 23.32 102.275 25.112ZM116.045 21.256H117.149V29H116.189L116.045 27.688C115.613 28.584 114.541 29.192 113.325 29.192C111.501 29.192 110.509 27.944 110.509 26.056V21.24H111.629V25.704C111.629 27.544 112.445 28.2 113.677 28.2C115.165 28.2 116.045 27.208 116.045 25.368V21.256ZM123.497 21.16V22.152H122.889C121.465 22.152 120.553 23.112 120.553 24.584V29H119.449V21.256H120.489L120.569 22.456C120.873 21.624 121.689 21.08 122.777 21.08C123.017 21.08 123.225 21.096 123.497 21.16ZM132.65 29.192C130.378 29.192 128.858 27.56 128.858 25.128C128.858 22.712 130.362 21.048 132.57 21.048C134.666 21.048 136.09 22.536 136.09 24.728V25.272H129.93C130.01 27.16 131.002 28.248 132.666 28.248C133.93 28.248 134.746 27.704 135.034 26.68H136.09C135.674 28.312 134.474 29.192 132.65 29.192ZM132.57 21.992C131.114 21.992 130.154 22.952 129.962 24.472H134.986C134.986 22.984 134.026 21.992 132.57 21.992ZM138.959 29H137.855V21.256H138.815L138.943 22.36C139.327 21.544 140.191 21.048 141.279 21.048C142.495 21.048 143.407 21.688 143.775 22.696C144.127 21.688 145.071 21.048 146.319 21.048C147.999 21.048 149.103 22.136 149.103 23.928V29H148.031V24.152C148.031 22.824 147.295 22.04 146.111 22.04C144.815 22.04 144.047 23.016 144.047 24.216V29H142.959V24.136C142.959 22.824 142.207 22.056 141.039 22.056C139.743 22.056 138.959 23.016 138.959 24.2V29ZM153.548 29.192C151.9 29.192 150.924 28.264 150.924 26.904C150.924 25.48 152.012 24.584 153.82 24.44L156.38 24.232V23.976C156.38 22.456 155.468 21.976 154.332 21.976C152.988 21.976 152.188 22.584 152.188 23.624H151.18C151.18 22.056 152.46 21.048 154.364 21.048C156.156 21.048 157.468 21.944 157.468 23.992V29H156.54L156.396 27.64C155.916 28.616 154.86 29.192 153.548 29.192ZM153.804 28.296C155.436 28.296 156.38 27.16 156.38 25.48V25.064L154.092 25.24C152.636 25.368 152.044 26.008 152.044 26.872C152.044 27.816 152.748 28.296 153.804 28.296ZM160.227 19.128C159.779 19.128 159.411 18.76 159.411 18.312C159.411 17.864 159.779 17.48 160.227 17.48C160.675 17.48 161.059 17.864 161.059 18.312C161.059 18.76 160.675 19.128 160.227 19.128ZM159.683 29V21.256H160.787V29H159.683ZM164.242 29H163.138V17.336H164.242V29ZM173.251 29.192C171.603 29.192 170.627 28.264 170.627 26.904C170.627 25.48 171.715 24.584 173.523 24.44L176.083 24.232V23.976C176.083 22.456 175.171 21.976 174.035 21.976C172.691 21.976 171.891 22.584 171.891 23.624H170.883C170.883 22.056 172.163 21.048 174.067 21.048C175.859 21.048 177.171 21.944 177.171 23.992V29H176.243L176.099 27.64C175.619 28.616 174.563 29.192 173.251 29.192ZM173.507 28.296C175.139 28.296 176.083 27.16 176.083 25.48V25.064L173.795 25.24C172.339 25.368 171.747 26.008 171.747 26.872C171.747 27.816 172.451 28.296 173.507 28.296ZM182.426 29.192C180.17 29.192 178.842 27.464 178.842 25.144C178.842 22.808 180.17 21.048 182.474 21.048C183.754 21.048 184.778 21.608 185.322 22.728V17.336H186.426V29H185.466L185.354 27.416C184.81 28.616 183.722 29.192 182.426 29.192ZM182.618 28.184C184.314 28.184 185.306 26.904 185.306 25.112C185.306 23.336 184.314 22.04 182.618 22.04C180.938 22.04 179.962 23.336 179.962 25.112C179.962 26.904 180.938 28.184 182.618 28.184ZM191.77 29.192C189.514 29.192 188.186 27.464 188.186 25.144C188.186 22.808 189.514 21.048 191.818 21.048C193.098 21.048 194.122 21.608 194.666 22.728V17.336H195.77V29H194.81L194.698 27.416C194.154 28.616 193.066 29.192 191.77 29.192ZM191.962 28.184C193.658 28.184 194.65 26.904 194.65 25.112C194.65 23.336 193.658 22.04 191.962 22.04C190.282 22.04 189.306 23.336 189.306 25.112C189.306 26.904 190.282 28.184 191.962 28.184ZM202.122 21.16V22.152H201.514C200.09 22.152 199.178 23.112 199.178 24.584V29H198.074V21.256H199.114L199.194 22.456C199.498 21.624 200.314 21.08 201.402 21.08C201.642 21.08 201.85 21.096 202.122 21.16ZM206.541 29.192C204.269 29.192 202.749 27.56 202.749 25.128C202.749 22.712 204.253 21.048 206.461 21.048C208.557 21.048 209.981 22.536 209.981 24.728V25.272H203.821C203.901 27.16 204.893 28.248 206.557 28.248C207.821 28.248 208.637 27.704 208.925 26.68H209.981C209.565 28.312 208.365 29.192 206.541 29.192ZM206.461 21.992C205.005 21.992 204.045 22.952 203.853 24.472H208.877C208.877 22.984 207.917 21.992 206.461 21.992ZM211.09 26.824H212.146C212.146 27.72 212.818 28.28 213.906 28.28C215.106 28.28 215.81 27.768 215.81 26.936C215.81 26.296 215.49 25.928 214.578 25.704L213.25 25.368C211.906 25.032 211.25 24.328 211.25 23.272C211.25 21.912 212.386 21.048 214.05 21.048C215.682 21.048 216.738 21.944 216.786 23.384H215.714C215.682 22.488 215.058 21.96 214.018 21.96C212.93 21.96 212.322 22.424 212.322 23.256C212.322 23.848 212.738 24.264 213.586 24.472L214.914 24.808C216.258 25.144 216.866 25.768 216.866 26.888C216.866 28.28 215.682 29.192 213.922 29.192C212.178 29.192 211.09 28.264 211.09 26.824ZM218.027 26.824H219.083C219.083 27.72 219.755 28.28 220.843 28.28C222.043 28.28 222.747 27.768 222.747 26.936C222.747 26.296 222.427 25.928 221.515 25.704L220.187 25.368C218.843 25.032 218.187 24.328 218.187 23.272C218.187 21.912 219.323 21.048 220.987 21.048C222.619 21.048 223.675 21.944 223.723 23.384H222.651C222.619 22.488 221.995 21.96 220.955 21.96C219.867 21.96 219.259 22.424 219.259 23.256C219.259 23.848 219.675 24.264 220.523 24.472L221.851 24.808C223.195 25.144 223.803 25.768 223.803 26.888C223.803 28.28 222.619 29.192 220.859 29.192C219.115 29.192 218.027 28.264 218.027 26.824Z" fill="black" fill-opacity="0.4"/>
</svg>
