<svg width="420" height="46" viewBox="0 0 420 46" fill="none" xmlns="http://www.w3.org/2000/svg">
<rect width="86" height="46" rx="23" fill="#F0F0F0"/>
<path d="M24.704 20.52C24.704 18.6 26.24 17.336 28.544 17.336C30.608 17.336 31.968 18.488 32.144 20.408H30.976C30.848 19.112 29.968 18.376 28.528 18.376C26.912 18.376 25.856 19.208 25.856 20.504C25.856 21.512 26.448 22.152 27.648 22.456L29.616 22.936C31.408 23.368 32.336 24.392 32.336 25.944C32.336 27.928 30.8 29.192 28.432 29.192C26.208 29.192 24.704 28.024 24.56 26.152H25.744C25.808 27.352 26.864 28.136 28.432 28.136C30.112 28.136 31.184 27.32 31.184 26.008C31.184 24.984 30.608 24.312 29.376 24.024L27.44 23.544C25.648 23.112 24.704 22.088 24.704 20.52ZM35.2716 29H34.1676V21.256H35.1276L35.2556 22.36C35.6396 21.544 36.5036 21.048 37.5916 21.048C38.8076 21.048 39.7196 21.688 40.0876 22.696C40.4396 21.688 41.3836 21.048 42.6316 21.048C44.3116 21.048 45.4156 22.136 45.4156 23.928V29H44.3436V24.152C44.3436 22.824 43.6076 22.04 42.4236 22.04C41.1276 22.04 40.3596 23.016 40.3596 24.216V29H39.2716V24.136C39.2716 22.824 38.5196 22.056 37.3516 22.056C36.0556 22.056 35.2716 23.016 35.2716 24.2V29ZM49.8604 29.192C48.2124 29.192 47.2364 28.264 47.2364 26.904C47.2364 25.48 48.3244 24.584 50.1324 24.44L52.6924 24.232V23.976C52.6924 22.456 51.7804 21.976 50.6444 21.976C49.3004 21.976 48.5004 22.584 48.5004 23.624H47.4924C47.4924 22.056 48.7724 21.048 50.6764 21.048C52.4684 21.048 53.7804 21.944 53.7804 23.992V29H52.8524L52.7084 27.64C52.2284 28.616 51.1724 29.192 49.8604 29.192ZM50.1164 28.296C51.7484 28.296 52.6924 27.16 52.6924 25.48V25.064L50.4044 25.24C48.9484 25.368 48.3564 26.008 48.3564 26.872C48.3564 27.816 49.0604 28.296 50.1164 28.296ZM57.1478 29H56.0438V17.336H57.1478V29ZM60.6478 29H59.5438V17.336H60.6478V29Z" fill="black" fill-opacity="0.6"/>
<rect x="98" width="105" height="46" rx="23" fill="#F0F0F0"/>
<path d="M124.528 29H123.392V17.544H124.528L128.704 27.64L132.88 17.544H134.032V29H132.896V23.56C132.896 21.56 132.928 20.68 132.992 19.896L129.264 29H128.16L124.432 19.944C124.496 20.376 124.528 21.64 124.528 23.384V29ZM139.822 29.192C137.55 29.192 136.03 27.56 136.03 25.128C136.03 22.712 137.534 21.048 139.742 21.048C141.838 21.048 143.262 22.536 143.262 24.728V25.272H137.102C137.182 27.16 138.174 28.248 139.838 28.248C141.102 28.248 141.918 27.704 142.206 26.68H143.262C142.846 28.312 141.646 29.192 139.822 29.192ZM139.742 21.992C138.286 21.992 137.326 22.952 137.134 24.472H142.158C142.158 22.984 141.198 21.992 139.742 21.992ZM148.067 29.192C145.811 29.192 144.483 27.464 144.483 25.144C144.483 22.808 145.811 21.048 148.115 21.048C149.395 21.048 150.419 21.608 150.963 22.728V17.336H152.067V29H151.107L150.995 27.416C150.451 28.616 149.363 29.192 148.067 29.192ZM148.259 28.184C149.955 28.184 150.947 26.904 150.947 25.112C150.947 23.336 149.955 22.04 148.259 22.04C146.579 22.04 145.603 23.336 145.603 25.112C145.603 26.904 146.579 28.184 148.259 28.184ZM154.915 19.128C154.467 19.128 154.099 18.76 154.099 18.312C154.099 17.864 154.467 17.48 154.915 17.48C155.363 17.48 155.747 17.864 155.747 18.312C155.747 18.76 155.363 19.128 154.915 19.128ZM154.371 29V21.256H155.475V29H154.371ZM162.733 21.256H163.837V29H162.877L162.733 27.688C162.301 28.584 161.229 29.192 160.013 29.192C158.189 29.192 157.197 27.944 157.197 26.056V21.24H158.317V25.704C158.317 27.544 159.133 28.2 160.365 28.2C161.853 28.2 162.733 27.208 162.733 25.368V21.256ZM167.24 29H166.136V21.256H167.096L167.224 22.36C167.608 21.544 168.472 21.048 169.56 21.048C170.776 21.048 171.688 21.688 172.056 22.696C172.408 21.688 173.352 21.048 174.6 21.048C176.28 21.048 177.384 22.136 177.384 23.928V29H176.312V24.152C176.312 22.824 175.576 22.04 174.392 22.04C173.096 22.04 172.328 23.016 172.328 24.216V29H171.24V24.136C171.24 22.824 170.488 22.056 169.32 22.056C168.024 22.056 167.24 23.016 167.24 24.2V29Z" fill="black" fill-opacity="0.6"/>
<rect x="215" width="89" height="46" rx="23" fill="black"/>
<path d="M241.912 17.432V27.544H247V29H240.344V17.432H241.912ZM250.735 29.192C249.055 29.192 248.063 28.248 248.063 26.824C248.063 25.384 249.135 24.488 250.975 24.344L253.439 24.152V23.928C253.439 22.616 252.655 22.152 251.599 22.152C250.335 22.152 249.615 22.712 249.615 23.656H248.303C248.303 22.024 249.647 20.952 251.663 20.952C253.599 20.952 254.911 21.976 254.911 24.088V29H253.631L253.471 27.736C253.071 28.632 251.999 29.192 250.735 29.192ZM251.167 28.024C252.591 28.024 253.455 27.096 253.455 25.624V25.208L251.455 25.368C250.127 25.496 249.583 26.008 249.583 26.776C249.583 27.608 250.191 28.024 251.167 28.024ZM261.474 21.112V22.488H260.802C259.378 22.488 258.498 23.352 258.498 24.856V29H256.994V21.192H258.402L258.498 22.376C258.818 21.56 259.602 21.016 260.674 21.016C260.946 21.016 261.17 21.048 261.474 21.112ZM262.217 24.888C262.217 22.68 263.641 20.952 265.913 20.952C267.177 20.952 268.153 21.528 268.649 22.504L268.761 21.176H270.105V28.68C270.105 31.144 268.585 32.712 266.185 32.712C264.057 32.712 262.601 31.512 262.313 29.528H263.817C264.009 30.68 264.873 31.352 266.185 31.352C267.657 31.352 268.617 30.392 268.617 28.904V27.336C268.105 28.248 267.081 28.792 265.849 28.792C263.625 28.792 262.217 27.08 262.217 24.888ZM263.721 24.856C263.721 26.328 264.633 27.48 266.105 27.48C267.625 27.48 268.553 26.392 268.553 24.856C268.553 23.352 267.657 22.264 266.121 22.264C264.617 22.264 263.721 23.416 263.721 24.856ZM275.652 29.192C273.348 29.192 271.764 27.528 271.764 25.096C271.764 22.648 273.316 20.952 275.588 20.952C277.812 20.952 279.267 22.488 279.267 24.808V25.368L273.22 25.384C273.332 27.032 274.196 27.944 275.684 27.944C276.852 27.944 277.62 27.464 277.876 26.568H279.284C278.9 28.248 277.588 29.192 275.652 29.192ZM275.588 22.216C274.276 22.216 273.444 23 273.252 24.376H277.764C277.764 23.08 276.916 22.216 275.588 22.216Z" fill="white"/>
<rect x="316" width="104" height="46" rx="23" fill="#F0F0F0"/>
<path d="M344.224 23.288L340.224 17.544H341.584L343.712 20.552C344.256 21.32 344.624 21.928 344.896 22.44L348.224 17.544H349.552L345.616 23.256L349.616 29H348.24L346.064 25.928C345.68 25.384 345.216 24.68 344.928 24.168L341.584 29H340.24L344.224 23.288ZM350.618 25.288V24.296H355.258V25.288H350.618ZM358.825 17.544V27.944H364.089V29H357.673V17.544H358.825ZM367.798 29.192C366.15 29.192 365.174 28.264 365.174 26.904C365.174 25.48 366.262 24.584 368.07 24.44L370.63 24.232V23.976C370.63 22.456 369.718 21.976 368.582 21.976C367.238 21.976 366.438 22.584 366.438 23.624H365.43C365.43 22.056 366.71 21.048 368.614 21.048C370.406 21.048 371.718 21.944 371.718 23.992V29H370.79L370.646 27.64C370.166 28.616 369.11 29.192 367.798 29.192ZM368.054 28.296C369.686 28.296 370.63 27.16 370.63 25.48V25.064L368.342 25.24C366.886 25.368 366.294 26.008 366.294 26.872C366.294 27.816 366.998 28.296 368.054 28.296ZM377.981 21.16V22.152H377.373C375.949 22.152 375.037 23.112 375.037 24.584V29H373.933V21.256H374.973L375.053 22.456C375.357 21.624 376.173 21.08 377.261 21.08C377.501 21.08 377.709 21.096 377.981 21.16ZM378.78 24.904C378.78 22.792 380.14 21.048 382.412 21.048C383.756 21.048 384.78 21.672 385.276 22.808L385.388 21.256H386.348V28.76C386.348 31.064 384.876 32.568 382.604 32.568C380.62 32.568 379.228 31.448 378.924 29.576H380.028C380.268 30.824 381.228 31.56 382.62 31.56C384.204 31.56 385.26 30.488 385.26 28.872V27.032C384.732 28.12 383.66 28.76 382.332 28.76C380.124 28.76 378.78 27.016 378.78 24.904ZM379.884 24.888C379.884 26.472 380.86 27.768 382.492 27.768C384.172 27.768 385.164 26.552 385.164 24.888C385.164 23.24 384.204 22.024 382.508 22.024C380.844 22.024 379.884 23.32 379.884 24.888ZM391.9 29.192C389.628 29.192 388.108 27.56 388.108 25.128C388.108 22.712 389.612 21.048 391.82 21.048C393.916 21.048 395.34 22.536 395.34 24.728V25.272H389.18C389.26 27.16 390.252 28.248 391.916 28.248C393.18 28.248 393.996 27.704 394.284 26.68H395.34C394.924 28.312 393.724 29.192 391.9 29.192ZM391.82 21.992C390.364 21.992 389.404 22.952 389.212 24.472H394.236C394.236 22.984 393.276 21.992 391.82 21.992Z" fill="black" fill-opacity="0.6"/>
</svg>
