<svg width="349" height="46" viewBox="0 0 349 46" fill="none" xmlns="http://www.w3.org/2000/svg">
<rect width="349" height="46" rx="23" fill="white"/>
<path d="M89.172 20.552C89.172 18.568 90.772 17.224 93.156 17.224C95.364 17.224 96.788 18.456 96.916 20.456H95.332C95.252 19.304 94.436 18.632 93.14 18.632C91.684 18.632 90.74 19.368 90.74 20.504C90.74 21.432 91.268 21.992 92.356 22.248L94.26 22.696C96.148 23.128 97.108 24.152 97.108 25.784C97.108 27.864 95.492 29.192 93.028 29.192C90.676 29.192 89.108 27.96 89.012 25.976H90.612C90.644 27.08 91.572 27.784 93.028 27.784C94.564 27.784 95.54 27.064 95.54 25.912C95.54 25 95.044 24.424 93.94 24.168L92.036 23.736C90.148 23.304 89.172 22.216 89.172 20.552ZM104.23 21.176H105.718V29H104.374L104.214 27.816C103.766 28.632 102.726 29.192 101.574 29.192C99.7504 29.192 98.7264 27.96 98.7264 26.04V21.176H100.23V25.544C100.23 27.224 100.95 27.864 102.102 27.864C103.478 27.864 104.23 26.984 104.23 25.304V21.176ZM109.261 29H107.901V17.224H109.405V22.52C109.917 21.496 110.973 20.952 112.253 20.952C114.493 20.952 115.837 22.712 115.837 25.128C115.837 27.496 114.429 29.192 112.157 29.192C110.924 29.192 109.885 28.648 109.373 27.576L109.261 29ZM109.421 25.064C109.421 26.696 110.349 27.832 111.885 27.832C113.421 27.832 114.333 26.68 114.333 25.064C114.333 23.464 113.421 22.312 111.885 22.312C110.349 22.312 109.421 23.464 109.421 25.064ZM116.854 26.728H118.294C118.294 27.528 118.902 28.008 119.894 28.008C120.95 28.008 121.558 27.576 121.558 26.856C121.558 26.328 121.302 26.008 120.486 25.8L119.11 25.48C117.718 25.144 117.062 24.456 117.062 23.304C117.062 21.864 118.278 20.952 120.006 20.952C121.718 20.952 122.838 21.912 122.87 23.4H121.43C121.398 22.616 120.87 22.12 119.958 22.12C119.014 22.12 118.486 22.536 118.486 23.256C118.486 23.784 118.87 24.136 119.638 24.328L121.014 24.664C122.342 24.984 122.998 25.592 122.998 26.76C122.998 28.248 121.718 29.192 119.862 29.192C118.022 29.192 116.854 28.216 116.854 26.728ZM124.154 25.096C124.154 22.648 125.706 20.952 127.994 20.952C129.962 20.952 131.338 22.072 131.61 23.816H130.106C129.85 22.824 129.05 22.296 128.042 22.296C126.618 22.296 125.642 23.384 125.642 25.08C125.642 26.76 126.554 27.848 127.978 27.848C129.05 27.848 129.85 27.288 130.122 26.36H131.626C131.322 28.056 129.866 29.192 127.978 29.192C125.674 29.192 124.154 27.56 124.154 25.096ZM137.693 21.112V22.488H137.021C135.597 22.488 134.717 23.352 134.717 24.856V29H133.213V21.192H134.621L134.717 22.376C135.037 21.56 135.821 21.016 136.893 21.016C137.165 21.016 137.389 21.048 137.693 21.112ZM139.84 19.32C139.296 19.32 138.848 18.872 138.848 18.328C138.848 17.768 139.296 17.336 139.84 17.336C140.384 17.336 140.832 17.768 140.832 18.328C140.832 18.872 140.384 19.32 139.84 19.32ZM139.104 29V21.176H140.608V29H139.104ZM144.151 29H142.791V17.224H144.295V22.52C144.807 21.496 145.863 20.952 147.143 20.952C149.383 20.952 150.727 22.712 150.727 25.128C150.727 27.496 149.319 29.192 147.047 29.192C145.815 29.192 144.775 28.648 144.263 27.576L144.151 29ZM144.311 25.064C144.311 26.696 145.239 27.832 146.775 27.832C148.311 27.832 149.223 26.68 149.223 25.064C149.223 23.464 148.311 22.312 146.775 22.312C145.239 22.312 144.311 23.464 144.311 25.064ZM155.761 29.192C153.457 29.192 151.873 27.528 151.873 25.096C151.873 22.648 153.425 20.952 155.697 20.952C157.921 20.952 159.377 22.488 159.377 24.808V25.368L153.329 25.384C153.441 27.032 154.305 27.944 155.793 27.944C156.961 27.944 157.729 27.464 157.985 26.568H159.393C159.009 28.248 157.697 29.192 155.761 29.192ZM155.697 22.216C154.385 22.216 153.553 23 153.361 24.376H157.873C157.873 23.08 157.025 22.216 155.697 22.216ZM167.64 29H166.136V22.44H164.6V21.176H166.136V18.728H167.64V21.176H169.176V22.44H167.64V29ZM169.935 25.08C169.935 22.664 171.663 20.968 174.015 20.968C176.351 20.968 178.079 22.664 178.079 25.08C178.079 27.496 176.351 29.192 174.015 29.192C171.663 29.192 169.935 27.496 169.935 25.08ZM171.455 25.08C171.455 26.712 172.495 27.848 174.015 27.848C175.519 27.848 176.575 26.712 176.575 25.08C176.575 23.448 175.519 22.312 174.015 22.312C172.495 22.312 171.455 23.448 171.455 25.08ZM185.943 29H184.375V17.432H185.943L191.863 26.376V17.432H193.431V29H191.863L185.943 20.056V29ZM199.245 29.192C196.941 29.192 195.357 27.528 195.357 25.096C195.357 22.648 196.909 20.952 199.181 20.952C201.405 20.952 202.861 22.488 202.861 24.808V25.368L196.813 25.384C196.925 27.032 197.789 27.944 199.277 27.944C200.445 27.944 201.213 27.464 201.469 26.568H202.877C202.493 28.248 201.181 29.192 199.245 29.192ZM199.181 22.216C197.869 22.216 197.037 23 196.845 24.376H201.357C201.357 23.08 200.509 22.216 199.181 22.216ZM205.956 29L203.396 21.176H204.948L206.244 25.24C206.42 25.816 206.58 26.408 206.724 27.096C206.852 26.408 207.06 25.752 207.236 25.24L208.548 21.176H210.084L211.38 25.24C211.508 25.624 211.764 26.536 211.892 27.096C212.02 26.472 212.164 25.928 212.388 25.24L213.7 21.176H215.268L212.595 29H211.172L209.812 24.808C209.556 24.024 209.396 23.416 209.316 22.984C209.236 23.368 209.092 23.88 208.804 24.824L207.444 29H205.956ZM215.807 26.728H217.247C217.247 27.528 217.855 28.008 218.847 28.008C219.903 28.008 220.511 27.576 220.511 26.856C220.511 26.328 220.255 26.008 219.439 25.8L218.063 25.48C216.671 25.144 216.015 24.456 216.015 23.304C216.015 21.864 217.231 20.952 218.959 20.952C220.671 20.952 221.791 21.912 221.823 23.4H220.383C220.351 22.616 219.823 22.12 218.911 22.12C217.967 22.12 217.439 22.536 217.439 23.256C217.439 23.784 217.823 24.136 218.591 24.328L219.967 24.664C221.295 24.984 221.951 25.592 221.951 26.76C221.951 28.248 220.671 29.192 218.815 29.192C216.975 29.192 215.807 28.216 215.807 26.728ZM225.155 29H223.651V17.224H225.155V29ZM230.745 29.192C228.441 29.192 226.857 27.528 226.857 25.096C226.857 22.648 228.409 20.952 230.681 20.952C232.905 20.952 234.361 22.488 234.361 24.808V25.368L228.313 25.384C228.425 27.032 229.289 27.944 230.777 27.944C231.945 27.944 232.713 27.464 232.969 26.568H234.377C233.993 28.248 232.681 29.192 230.745 29.192ZM230.681 22.216C229.369 22.216 228.537 23 228.345 24.376H232.857C232.857 23.08 232.009 22.216 230.681 22.216ZM238.171 29H236.667V22.44H235.131V21.176H236.667V18.728H238.171V21.176H239.707V22.44H238.171V29ZM243.405 29H241.901V22.44H240.365V21.176H241.901V18.728H243.405V21.176H244.941V22.44H243.405V29ZM249.589 29.192C247.285 29.192 245.701 27.528 245.701 25.096C245.701 22.648 247.253 20.952 249.525 20.952C251.749 20.952 253.205 22.488 253.205 24.808V25.368L247.157 25.384C247.269 27.032 248.133 27.944 249.621 27.944C250.789 27.944 251.557 27.464 251.813 26.568H253.221C252.837 28.248 251.525 29.192 249.589 29.192ZM249.525 22.216C248.213 22.216 247.381 23 247.189 24.376H251.701C251.701 23.08 250.853 22.216 249.525 22.216ZM259.365 21.112V22.488H258.693C257.269 22.488 256.389 23.352 256.389 24.856V29H254.885V21.192H256.293L256.389 22.376C256.709 21.56 257.493 21.016 258.565 21.016C258.837 21.016 259.061 21.048 259.365 21.112Z" fill="black"/>
</svg>
